<?xml version="1.0" encoding="utf-8"?>
<!-- Generator: Adobe Illustrator 24.0.3, SVG Export Plug-In . SVG Version: 6.00 Build 0)  -->
<svg version="1.1" id="Layer_1" xmlns="http://www.w3.org/2000/svg" xmlns:xlink="http://www.w3.org/1999/xlink" x="0px" y="0px"
	 viewBox="0 0 891.8 356.7" style="enable-background:new 0 0 891.8 356.7;" xml:space="preserve">
<style type="text/css">
	.st0{fill:#CBFF00;}
	.st1{fill:#1CD7D1;}
</style>
<g>
	<path class="st0" d="M338.7,349.9c-56,0-101.6-45.6-101.6-101.6s45.6-101.6,101.6-101.6s101.6,45.6,101.6,101.6
		S394.7,349.9,338.7,349.9z M338.7,169.8c-43.3,0-78.5,35.2-78.5,78.5s35.2,78.5,78.5,78.5s78.5-35.2,78.5-78.5
		C417.1,205.1,381.9,169.8,338.7,169.8z"/>
	<g>
		<g>
			<g>
				<path class="st0" d="M500.6,244.5c-6.3,0-11.7-4.5-12.8-10.8l-36.1-212c-0.6-3.4,0.2-6.8,2.2-9.7s5-4.7,8.4-5.3
					c7-1.2,13.7,3.6,14.9,10.6l36.1,212c0.6,3.4-0.2,6.8-2.2,9.7c-2,2.8-5,4.7-8.4,5.3C502,244.5,501.3,244.5,500.6,244.5z"/>
			</g>
		</g>
	</g>
	<path class="st0" d="M561,146.7c-20.6,0-39.8,6.2-55.8,16.8l4.4,25.7c13.8-12,31.8-19.3,51.5-19.3c43.3,0,78.5,35.2,78.5,78.5
		s-35.2,78.5-78.5,78.5s-78.5-35.2-78.5-78.5c0-5.8,0.6-11.4,1.8-16.8l-7-40.9c-11.3,16.4-18,36.3-18,57.7
		c0,56,45.6,101.6,101.6,101.6c56,0,101.6-45.6,101.6-101.6S617,146.7,561,146.7z"/>
	<g>
		<g>
			<g>
				<g>
					<path class="st0" d="M56.1,244.5c-6.3,0-11.7-4.5-12.8-10.8L7.2,21.7c-0.6-3.4,0.2-6.8,2.2-9.7s5-4.7,8.4-5.3
						c7-1.2,13.7,3.6,14.9,10.6l36.1,212c0.6,3.4-0.2,6.8-2.2,9.7c-2,2.8-5,4.7-8.4,5.3C57.6,244.5,56.8,244.5,56.1,244.5z"/>
				</g>
			</g>
		</g>
		<path class="st0" d="M116.5,146.7c-20.6,0-39.8,6.2-55.8,16.8l4.4,25.7c13.8-12,31.8-19.3,51.5-19.3c43.3,0,78.5,35.2,78.5,78.5
			s-35.2,78.5-78.5,78.5s-78.5-35.2-78.5-78.5c0-5.8,0.6-11.4,1.8-16.8l-7-40.9c-11.3,16.4-18,36.3-18,57.7
			c0,56,45.6,101.6,101.6,101.6s101.6-45.6,101.6-101.6S172.6,146.7,116.5,146.7z"/>
		<g>
			<g>
				<circle class="st1" cx="111" cy="293.8" r="13.8"/>
			</g>
			<g>
				<circle class="st1" cx="154.2" cy="277.7" r="13.8"/>
			</g>
			<g>
				<circle class="st1" cx="120.2" cy="248" r="13.8"/>
			</g>
			<g>
				<circle class="st1" cx="77.3" cy="262.1" r="13.8"/>
			</g>
			<g>
				<circle class="st1" cx="163.1" cy="233.8" r="13.8"/>
			</g>
			<g>
				<circle class="st1" cx="129.5" cy="202.2" r="13.8"/>
			</g>
			<g>
				<circle class="st1" cx="86.1" cy="218.3" r="13.8"/>
			</g>
		</g>
	</g>
	<g>
		<g>
			<circle class="st1" cx="555.4" cy="293.8" r="13.8"/>
		</g>
		<g>
			<circle class="st1" cx="598.7" cy="277.7" r="13.8"/>
		</g>
		<g>
			<circle class="st1" cx="564.7" cy="248" r="13.8"/>
		</g>
		<g>
			
				<ellipse transform="matrix(0.3162 -0.9487 0.9487 0.3162 107.9973 674.196)" class="st1" cx="521.7" cy="262.2" rx="13.8" ry="13.8"/>
		</g>
		<g>
			<circle class="st1" cx="607.5" cy="233.8" r="13.8"/>
		</g>
		<g>
			<circle class="st1" cx="573.9" cy="202.2" r="13.8"/>
		</g>
		<g>
			<circle class="st1" cx="530.6" cy="218.3" r="13.8"/>
		</g>
	</g>
	<g>
		<g>
			<g>
				<g>
					<path class="st0" d="M843.6,251.9c6.3,0,11.7,4.5,12.8,10.8l12.9,76.2c0.6,3.4-0.2,6.8-2.2,9.7c-2,2.8-5,4.7-8.4,5.3
						c-7,1.2-13.7-3.6-14.9-10.6l-12.9-76.2c-0.6-3.4,0.2-6.8,2.2-9.7c2-2.8,5-4.7,8.4-5.3C842.1,252,842.8,251.9,843.6,251.9z"/>
				</g>
			</g>
		</g>
		<path class="st0" d="M783.1,349.7c20.6,0,39.8-6.2,55.8-16.8l-4.4-25.7c-13.8,12-31.8,19.3-51.4,19.3c-43.3,0-78.5-35.2-78.5-78.5
			s35.2-78.5,78.5-78.5s78.5,35.2,78.5,78.5c0,5.8-0.6,11.4-1.8,16.8l6.9,40.9c11.3-16.4,18-36.3,18-57.7
			c0-56-45.6-101.6-101.6-101.6S681.5,192,681.5,248C681.5,304.1,727.1,349.7,783.1,349.7z"/>
	</g>
</g>
</svg>
